<svg xmlns="http://www.w3.org/2000/svg" aria-hidden="true" style="position:absolute;width:0;height:0;overflow:hidden">
  <defs>
    <symbol id="icon-wind" viewBox="0 0 32 32">
      <path d="M15.504 3.2c-1.501 0-2.956.513-4.117 1.45S9.431 6.891 9.136 8.34l-.116.575a.991.991 0 0 0 .777 1.191c.132.026.267.025.399-.001s.256-.079.366-.155a.992.992 0 0 0 .418-.65l.118-.573c.222-1.075.84-2.03 1.737-2.681s2.006-.951 3.114-.843c1.108.108 2.136.618 2.884 1.43S19.997 8.501 20 9.598c0 1.175-.474 2.302-1.318 3.134s-1.988 1.298-3.182 1.299H1c-.265 0-.52.104-.707.288S0 14.754 0 15.015c0 .261.105.512.293.696s.442.288.707.288h14.5c1.696-.041 3.309-.733 4.494-1.928s1.849-2.799 1.849-4.47-.662-3.275-1.846-4.471a6.55 6.55 0 0 0-4.492-1.931zM27 12.062c-1.326 0-2.598.519-3.536 1.442S22 15.679 22 16.985c0 .261.105.512.293.696a1.011 1.011 0 0 0 1.414 0 .976.976 0 0 0 .293-.696c0-.584.176-1.155.506-1.641s.798-.864 1.346-1.088a3.038 3.038 0 0 1 3.269.64c.42.413.705.939.821 1.512s.056 1.167-.171 1.707-.612 1.001-1.105 1.326-1.073.498-1.667.498h-26c-.265 0-.52.104-.707.288s-.293.435-.293.696c0 .261.105.512.293.696s.442.288.707.288h19.5c.663.001 1.298.262 1.766.724s.73 1.089.729 1.742c-.001.653-.266 1.279-.736 1.739s-1.106.719-1.769.717c-.597 0-1.175-.207-1.632-.587s-.762-.905-.862-1.485l-.01-.059a.966.966 0 0 0-.398-.66 1.017 1.017 0 0 0-1.129-.039.991.991 0 0 0-.444.631.976.976 0 0 0-.002.392l.01.059c.178 1.04.724 1.984 1.542 2.664s1.854 1.054 2.924 1.054c1.195 0 2.341-.466 3.186-1.297s1.322-1.958 1.324-3.134c0-.912-.28-1.759-.758-2.462h2.758c1.326 0 2.598-.519 3.536-1.442s1.464-2.176 1.464-3.481c0-1.306-.527-2.558-1.464-3.481s-2.209-1.442-3.536-1.442z"/>
    </symbol>
    <symbol id="icon-calendar" viewBox="0 0 32 32">
      <path stroke-linecap="round" stroke-linejoin="round" stroke-width="2.4" d="M25.333 5.333H6.666A2.667 2.667 0 0 0 3.999 8v18.667a2.667 2.667 0 0 0 2.667 2.667h18.667A2.667 2.667 0 0 0 28 26.667V8a2.667 2.667 0 0 0-2.667-2.667zM21.333 2.667V8M10.667 2.667V8M4 13.333h24"/>
    </symbol>
    <symbol id="icon-camper2" viewBox="0 0 46 32">
      <path d="M2.608 1.8h12.409c.105 0 .203-.04.278-.112L16.487.525a1.845 1.845 0 0 1 1.297-.524h18.817c.876 0 1.69.425 2.176 1.136l2.255 3.3c.32.468.349 1.067.077 1.564s-.8.805-1.377.805h-9.698v.956h4.967c1.317 0 2.501.763 3.018 1.945l2.908 6.65 2.548.994c1.36.531 2.24 1.797 2.24 3.227v6.158c0 .918-.766 1.666-1.708 1.666h-2.964c-.345 2.039-2.164 3.599-4.35 3.599s-4.005-1.561-4.35-3.599H16.14c-.345 2.039-2.164 3.599-4.35 3.599s-4.005-1.561-4.35-3.599H1.519c-.837 0-1.518-.664-1.518-1.481V4.345c0-1.403 1.17-2.544 2.608-2.544zm34.084 28.794c1.637 0 2.969-1.299 2.969-2.896s-1.332-2.896-2.969-2.896c-1.637 0-2.969 1.299-2.969 2.896s1.332 2.896 2.969 2.896zm-6.658-3.599h2.307l.02-.105.014-.071c.012-.055.025-.11.039-.164.003-.011.005-.023.009-.034a3.34 3.34 0 0 1 .057-.195l.019-.056a5.274 5.274 0 0 1 .122-.321l.033-.075c.016-.037.032-.072.05-.108l.038-.075.054-.103.041-.074.059-.101.043-.071.066-.101.044-.065.077-.105.04-.055.109-.135.016-.02c.043-.051.087-.1.132-.148l.043-.044.096-.099.056-.053.09-.084.062-.054.09-.077.066-.052.093-.071a1.22 1.22 0 0 1 .069-.05l.097-.068.069-.046c.034-.023.069-.044.104-.065l.068-.041c.038-.023.077-.044.116-.065l.059-.033.168-.084.013-.006c.061-.029.123-.056.186-.082l.061-.024.13-.05.075-.026.12-.039.082-.024c.039-.011.078-.023.118-.033.028-.007.056-.015.085-.021l.118-.026.087-.018c.04-.007.081-.015.122-.021l.086-.014.128-.016.082-.009.143-.011.07-.005a3.893 3.893 0 0 1 .502.005c.048.003.096.006.143.011.028.002.055.006.082.009l.128.016c.029.004.058.008.087.014.041.006.081.014.122.021l.087.018a4.084 4.084 0 0 1 .321.08l.082.024.12.039.075.026.13.05.061.024c.062.026.125.053.186.082l.013.006c.057.027.112.055.168.084l.059.033.116.065.068.041.104.065.069.046c.033.023.065.044.097.068l.069.05.093.071.066.052c.031.025.061.051.09.077l.062.054.09.084.056.053.096.099.043.044c.045.048.089.098.132.148l.016.02c.037.044.073.089.109.135l.04.055.077.105.044.065.066.101.043.071.059.101.041.074.054.103.038.075.05.108c.011.025.023.049.033.075.017.038.032.077.047.116a2.087 2.087 0 0 1 .075.205l.019.056c.02.064.039.129.056.195l.009.034c.014.055.027.109.039.164l.014.071.02.105h2.963a.263.263 0 0 0 .266-.26v-2.946h-1.124v-1.406h1.124v-1.806c0-.851-.523-1.606-1.333-1.922l-2.697-1.052H30.031v9.392zm0-10.798h9.257l-2.598-5.939a1.84 1.84 0 0 0-1.692-1.09h-4.967v7.03zM11.789 30.594c1.637 0 2.969-1.299 2.969-2.896s-1.332-2.896-2.969-2.896c-.051 0-.102.001-.153.004-1.364.067-2.488 1.038-2.756 2.309a2.812 2.812 0 0 0-.061.583c0 1.597 1.332 2.896 2.969 2.896zM1.441 22.383h1.124v1.406H1.441v3.131c0 .041.035.075.077.075h5.92l.02-.104.014-.072c.012-.054.024-.107.038-.16l.009-.038a4.26 4.26 0 0 1 .056-.193l.02-.058.046-.132.028-.072.046-.114a2.049 2.049 0 0 1 .084-.182l.038-.076.054-.102.042-.074.059-.1a2.156 2.156 0 0 1 .11-.171 1.08 1.08 0 0 1 .044-.066l.076-.104.042-.057.106-.132a3.757 3.757 0 0 1 .15-.171l.043-.045c.032-.033.063-.066.096-.098l.056-.053.089-.083.062-.055c.029-.025.059-.051.09-.075l.066-.053.092-.071.069-.05.096-.067.07-.047c.034-.023.069-.044.103-.065l.069-.042c.038-.023.077-.044.116-.065.02-.011.04-.023.061-.033.055-.029.11-.057.167-.083l.014-.007c.061-.029.123-.056.186-.082l.061-.024.13-.05.076-.026c.039-.014.079-.027.119-.039l.082-.024c.039-.011.078-.023.118-.033.028-.007.056-.015.085-.021l.118-.026.087-.018c.04-.007.081-.015.122-.021l.086-.014.128-.016.082-.009.143-.011.07-.005a3.893 3.893 0 0 1 .502.005c.048.003.096.006.143.011.028.002.055.006.082.009l.128.016c.029.004.058.008.086.014.041.006.081.014.122.021l.087.018a4.084 4.084 0 0 1 .321.08l.082.024c.04.012.08.026.119.039l.076.026.13.05.061.024c.062.026.124.053.186.082l.014.007c.056.026.112.054.167.083l.06.033.116.065.069.042c.035.021.069.042.103.065l.07.047c.032.022.065.044.096.067l.069.05.092.071c.023.017.044.035.066.053.031.025.061.05.09.076l.062.054.09.084.056.053.096.098.043.044c.045.048.089.098.132.148l.017.021c.036.044.073.088.107.134l.042.055.077.105.044.066c.023.033.044.066.066.1l.044.071.059.101.041.074.055.103a2.6 2.6 0 0 1 .087.183 2.343 2.343 0 0 1 .08.191l.028.071c.017.045.032.09.047.135l.019.055c.02.064.039.129.057.195l.007.031c.014.056.028.111.04.168l.013.069.021.106h12.453V6.106c0-.388.323-.703.721-.703h10.419c.018 0 .073 0 .107-.062s.004-.106-.006-.12l-2.255-3.3a1.18 1.18 0 0 0-.977-.51H17.784a.397.397 0 0 0-.278.112l-1.192 1.163a1.845 1.845 0 0 1-1.297.524H2.608c-.643 0-1.167.511-1.167 1.138v18.039z"/>
      <path d="M20.116 7.198h4.558c.921 0 1.67.731 1.67 1.629v15.046a.712.712 0 0 1-.721.703h-6.456a.712.712 0 0 1-.721-.703V8.827c-.001-.899.748-1.629 1.669-1.629zm-.229 15.972h5.015v-8.267h-5.015v8.267zm0-9.673h5.015V8.828a.226.226 0 0 0-.229-.223h-4.558c-.126 0-.229.1-.229.223l.001 4.669z"/>
    </symbol>
    <symbol id="icon-camper1" viewBox="0 0 46 32">
      <path d="M2.608 1.8h12.409c.105 0 .203-.04.278-.112L16.487.525a1.845 1.845 0 0 1 1.297-.524h18.817c.876 0 1.69.425 2.176 1.136l2.255 3.3c.32.468.349 1.067.077 1.564s-.8.805-1.377.805h-9.698v.956h4.967c1.317 0 2.501.763 3.018 1.945l2.908 6.65 2.548.994c1.36.531 2.24 1.797 2.24 3.227v6.158c0 .918-.766 1.666-1.708 1.666h-2.964c-.345 2.039-2.164 3.599-4.35 3.599s-4.005-1.561-4.35-3.599H16.14c-.345 2.039-2.164 3.599-4.35 3.599s-4.005-1.561-4.35-3.599H1.519c-.837 0-1.518-.664-1.518-1.481V4.345c0-1.403 1.17-2.544 2.608-2.544zm34.084 28.794c1.637 0 2.969-1.299 2.969-2.896s-1.332-2.896-2.969-2.896c-1.637 0-2.969 1.299-2.969 2.896s1.332 2.896 2.969 2.896zm-6.658-3.599h2.307l.02-.105.014-.071c.012-.055.025-.11.039-.164.003-.011.005-.023.009-.034a3.34 3.34 0 0 1 .057-.195l.019-.056a5.274 5.274 0 0 1 .122-.321l.033-.075c.016-.037.032-.072.05-.108l.038-.075.054-.103.041-.074.059-.101.043-.071.066-.101.044-.065.077-.105.04-.055.109-.135.016-.02c.043-.051.087-.1.132-.148l.043-.044.096-.099.056-.053.09-.084.062-.054.09-.077.066-.052.093-.071a1.22 1.22 0 0 1 .069-.05l.097-.068.069-.046c.034-.023.069-.044.104-.065l.068-.041c.038-.023.077-.044.116-.065l.059-.033.168-.084.013-.006c.061-.029.123-.056.186-.082l.061-.024.13-.05.075-.026.12-.039.082-.024c.039-.011.078-.023.118-.033.028-.007.056-.015.085-.021l.118-.026.087-.018c.04-.007.081-.015.122-.021l.086-.014.128-.016.082-.009.143-.011.07-.005a3.893 3.893 0 0 1 .502.005c.048.003.096.006.143.011.028.002.055.006.082.009l.128.016c.029.004.058.008.087.014.041.006.081.014.122.021l.087.018a4.084 4.084 0 0 1 .321.08l.082.024.12.039.075.026.13.05.061.024c.062.026.125.053.186.082l.013.006c.057.027.112.055.168.084l.059.033.116.065.068.041.104.065.069.046c.033.023.065.044.097.068l.069.05.093.071.066.052c.031.025.061.051.09.077l.062.054.09.084.056.053.096.099.043.044c.045.048.089.098.132.148l.016.02c.037.044.073.089.109.135l.04.055.077.105.044.065.066.101.043.071.059.101.041.074.054.103.038.075.05.108c.011.025.023.049.033.075.017.038.032.077.047.116a2.087 2.087 0 0 1 .075.205l.019.056c.02.064.039.129.056.195l.009.034c.014.055.027.109.039.164l.014.071.02.105h2.963a.263.263 0 0 0 .266-.26v-2.946h-1.124v-1.406h1.124v-1.806c0-.851-.523-1.606-1.333-1.922l-2.697-1.052H30.031v9.392zm0-10.798h9.257l-2.598-5.939a1.84 1.84 0 0 0-1.692-1.09h-4.967v7.03zM11.789 30.594c1.637 0 2.969-1.299 2.969-2.896s-1.332-2.896-2.969-2.896c-.051 0-.102.001-.153.004-1.364.067-2.488 1.038-2.756 2.309a2.812 2.812 0 0 0-.061.583c0 1.597 1.332 2.896 2.969 2.896zM1.441 22.383h1.124v1.406H1.441v3.131c0 .041.035.075.077.075h5.92l.02-.104.014-.072c.012-.054.024-.107.038-.16l.009-.038a4.26 4.26 0 0 1 .056-.193l.02-.058.046-.132.028-.072.046-.114a2.049 2.049 0 0 1 .084-.182l.038-.076.054-.102.042-.074.059-.1a2.156 2.156 0 0 1 .11-.171 1.08 1.08 0 0 1 .044-.066l.076-.104.042-.057.106-.132a3.757 3.757 0 0 1 .15-.171l.043-.045c.032-.033.063-.066.096-.098l.056-.053.089-.083.062-.055c.029-.025.059-.051.09-.075l.066-.053.092-.071.069-.05.096-.067.07-.047c.034-.023.069-.044.103-.065l.069-.042c.038-.023.077-.044.116-.065.02-.011.04-.023.061-.033.055-.029.11-.057.167-.083l.014-.007c.061-.029.123-.056.186-.082l.061-.024.13-.05.076-.026c.039-.014.079-.027.119-.039l.082-.024c.039-.011.078-.023.118-.033.028-.007.056-.015.085-.021l.118-.026.087-.018c.04-.007.081-.015.122-.021l.086-.014.128-.016.082-.009.143-.011.07-.005a3.893 3.893 0 0 1 .502.005c.048.003.096.006.143.011.028.002.055.006.082.009l.128.016c.029.004.058.008.086.014.041.006.081.014.122.021l.087.018a4.084 4.084 0 0 1 .321.08l.082.024c.04.012.08.026.119.039l.076.026.13.05.061.024c.062.026.124.053.186.082l.014.007c.056.026.112.054.167.083l.06.033.116.065.069.042c.035.021.069.042.103.065l.07.047c.032.022.065.044.096.067l.069.05.092.071c.023.017.044.035.066.053.031.025.061.05.09.076l.062.054.09.084.056.053.096.098.043.044c.045.048.089.098.132.148l.017.021c.036.044.073.088.107.134l.042.055.077.105.044.066c.023.033.044.066.066.1l.044.071.059.101.041.074.055.103a2.6 2.6 0 0 1 .087.183 2.343 2.343 0 0 1 .08.191l.028.071c.017.045.032.09.047.135l.019.055c.02.064.039.129.057.195l.007.031c.014.056.028.111.04.168l.013.069.021.106h12.453V6.106c0-.388.323-.703.721-.703h10.419c.018 0 .073 0 .107-.062s.004-.106-.006-.12l-2.255-3.3a1.18 1.18 0 0 0-.977-.51H17.784a.397.397 0 0 0-.278.112l-1.192 1.163a1.845 1.845 0 0 1-1.297.524H2.608c-.643 0-1.167.511-1.167 1.138v18.039z"/>
      <path d="M5.536 7.198h8.814c1.019 0 1.848.809 1.848 1.802v4.1c0 .994-.829 1.802-1.848 1.802H5.535c-1.019 0-1.848-.809-1.848-1.802V9c.001-.994.83-1.802 1.848-1.802zM5.129 13.1c0 .218.182.396.406.396h8.814a.402.402 0 0 0 .406-.396V9a.402.402 0 0 0-.406-.396H5.534A.402.402 0 0 0 5.128 9l.001 4.1z"/>
    </symbol>
    <symbol id="icon-camper3" viewBox="0 0 46 32">
      <path d="M2.608 1.8h12.409c.105 0 .203-.04.278-.112L16.487.525a1.845 1.845 0 0 1 1.297-.524h18.817c.876 0 1.69.425 2.176 1.136l2.255 3.3c.32.468.349 1.067.077 1.564s-.8.805-1.377.805h-9.698v.956h4.967c1.317 0 2.501.763 3.018 1.945l2.908 6.65 2.548.994c1.36.531 2.24 1.797 2.24 3.227v6.158c0 .918-.766 1.666-1.708 1.666h-2.964c-.345 2.039-2.164 3.599-4.35 3.599s-4.005-1.561-4.35-3.599H16.14c-.345 2.039-2.164 3.599-4.35 3.599s-4.005-1.561-4.35-3.599H1.519c-.837 0-1.518-.664-1.518-1.481V4.345c0-1.403 1.17-2.544 2.608-2.544zm34.084 28.794c1.637 0 2.969-1.299 2.969-2.896s-1.332-2.896-2.969-2.896c-1.637 0-2.969 1.299-2.969 2.896s1.332 2.896 2.969 2.896zm-6.658-3.599h2.307l.02-.105.014-.071c.012-.055.025-.11.039-.164.003-.011.005-.023.009-.034a3.34 3.34 0 0 1 .057-.195l.019-.056a5.274 5.274 0 0 1 .122-.321l.033-.075c.016-.037.032-.072.05-.108l.038-.075.054-.103.041-.074.059-.101.043-.071.066-.101.044-.065.077-.105.04-.055.109-.135.016-.02c.043-.051.087-.1.132-.148l.043-.044.096-.099.056-.053.09-.084.062-.054.09-.077.066-.052.093-.071a1.22 1.22 0 0 1 .069-.05l.097-.068.069-.046c.034-.023.069-.044.104-.065l.068-.041c.038-.023.077-.044.116-.065l.059-.033.168-.084.013-.006c.061-.029.123-.056.186-.082l.061-.024.13-.05.075-.026.12-.039.082-.024c.039-.011.078-.023.118-.033.028-.007.056-.015.085-.021l.118-.026.087-.018c.04-.007.081-.015.122-.021l.086-.014.128-.016.082-.009.143-.011.07-.005a3.893 3.893 0 0 1 .502.005c.048.003.096.006.143.011.028.002.055.006.082.009l.128.016c.029.004.058.008.087.014.041.006.081.014.122.021l.087.018a4.084 4.084 0 0 1 .321.08l.082.024.12.039.075.026.13.05.061.024c.062.026.125.053.186.082l.013.006c.057.027.112.055.168.084l.059.033.116.065.068.041.104.065.069.046c.033.023.065.044.097.068l.069.05.093.071.066.052c.031.025.061.051.09.077l.062.054.09.084.056.053.096.099.043.044c.045.048.089.098.132.148l.016.02c.037.044.073.089.109.135l.04.055.077.105.044.065.066.101.043.071.059.101.041.074.054.103.038.075.05.108c.011.025.023.049.033.075.017.038.032.077.047.116a2.087 2.087 0 0 1 .075.205l.019.056c.02.064.039.129.056.195l.009.034c.014.055.027.109.039.164l.014.071.02.105h2.963a.263.263 0 0 0 .266-.26v-2.946h-1.124v-1.406h1.124v-1.806c0-.851-.523-1.606-1.333-1.922l-2.697-1.052H30.031v9.392zm0-10.798h9.257l-2.598-5.939a1.84 1.84 0 0 0-1.692-1.09h-4.967v7.03zM11.789 30.594c1.637 0 2.969-1.299 2.969-2.896s-1.332-2.896-2.969-2.896c-.051 0-.102.001-.153.004-1.364.067-2.488 1.038-2.756 2.309a2.812 2.812 0 0 0-.061.583c0 1.597 1.332 2.896 2.969 2.896zM1.441 22.383h1.124v1.406H1.441v3.131c0 .041.035.075.077.075h5.92l.02-.104.014-.072c.012-.054.024-.107.038-.16l.009-.038a4.26 4.26 0 0 1 .056-.193l.02-.058.046-.132.028-.072.046-.114a2.049 2.049 0 0 1 .084-.182l.038-.076.054-.102.042-.074.059-.1a2.156 2.156 0 0 1 .11-.171 1.08 1.08 0 0 1 .044-.066l.076-.104.042-.057.106-.132a3.757 3.757 0 0 1 .15-.171l.043-.045c.032-.033.063-.066.096-.098l.056-.053.089-.083.062-.055c.029-.025.059-.051.09-.075l.066-.053.092-.071.069-.05.096-.067.07-.047c.034-.023.069-.044.103-.065l.069-.042c.038-.023.077-.044.116-.065.02-.011.04-.023.061-.033.055-.029.11-.057.167-.083l.014-.007c.061-.029.123-.056.186-.082l.061-.024.13-.05.076-.026c.039-.014.079-.027.119-.039l.082-.024c.039-.011.078-.023.118-.033.028-.007.056-.015.085-.021l.118-.026.087-.018c.04-.007.081-.015.122-.021l.086-.014.128-.016.082-.009.143-.011.07-.005a3.893 3.893 0 0 1 .502.005c.048.003.096.006.143.011.028.002.055.006.082.009l.128.016c.029.004.058.008.086.014.041.006.081.014.122.021l.087.018a4.084 4.084 0 0 1 .321.08l.082.024c.04.012.08.026.119.039l.076.026.13.05.061.024c.062.026.124.053.186.082l.014.007c.056.026.112.054.167.083l.06.033.116.065.069.042c.035.021.069.042.103.065l.07.047c.032.022.065.044.096.067l.069.05.092.071c.023.017.044.035.066.053.031.025.061.05.09.076l.062.054.09.084.056.053.096.098.043.044c.045.048.089.098.132.148l.017.021c.036.044.073.088.107.134l.042.055.077.105.044.066c.023.033.044.066.066.1l.044.071.059.101.041.074.055.103a2.6 2.6 0 0 1 .087.183 2.343 2.343 0 0 1 .08.191l.028.071c.017.045.032.09.047.135l.019.055c.02.064.039.129.057.195l.007.031c.014.056.028.111.04.168l.013.069.021.106h12.453V6.106c0-.388.323-.703.721-.703h10.419c.018 0 .073 0 .107-.062s.004-.106-.006-.12l-2.255-3.3a1.18 1.18 0 0 0-.977-.51H17.784a.397.397 0 0 0-.278.112l-1.192 1.163a1.845 1.845 0 0 1-1.297.524H2.608c-.643 0-1.167.511-1.167 1.138v18.039z"/>
      <path d="M20.116 7.198h4.558c.921 0 1.67.731 1.67 1.629v15.046a.712.712 0 0 1-.721.703h-6.456a.712.712 0 0 1-.721-.703V8.827c-.001-.899.748-1.629 1.669-1.629zm-.229 15.972h5.015v-8.267h-5.015v8.267zm0-9.673h5.015V8.828a.226.226 0 0 0-.229-.223h-4.558c-.126 0-.229.1-.229.223v4.669h.001zM5.536 7.198h8.814c1.019 0 1.848.809 1.848 1.802v4.1c0 .994-.829 1.802-1.848 1.802H5.535c-1.019 0-1.848-.809-1.848-1.802V9c.001-.994.83-1.802 1.848-1.802zM5.129 13.1c0 .218.182.396.406.396h8.814a.402.402 0 0 0 .406-.396V9a.402.402 0 0 0-.406-.396H5.534A.402.402 0 0 0 5.128 9v4.1h.001z"/>
    </symbol>
    <symbol id="icon-automatic" viewBox="0 0 32 32">
      <path stroke-linecap="round" stroke-linejoin="round" stroke-width="2.4" d="M22.667 14.667h2a2 2 0 0 0 0-4h-2v6.667m0 5.333V28H24a2.668 2.668 0 0 0 0-5.334h-1.333zM4 6.667a2.668 2.668 0 1 0 5.336 0 2.668 2.668 0 0 0-5.336 0z"/>
      <path stroke-linecap="round" stroke-linejoin="round" stroke-width="2.4" d="M6.667 9.333v4a1.335 1.335 0 0 0 1.334 1.334h4m-.001 0V24a1.33 1.33 0 0 0 1.334 1.333h4M12 14.667h5.333"/>
    </symbol>
    <symbol id="icon-bed" viewBox="0 0 32 32">
      <path stroke-linecap="round" stroke-linejoin="round" stroke-width="2.24" d="M3 26v-7a4.012 4.012 0 0 1 4-4h18a4.012 4.012 0 0 1 4 4v7m-5-11H6V8.5A2.504 2.504 0 0 1 8.5 6h15A2.504 2.504 0 0 1 26 8.5V15h-2z"/>
      <path stroke-linecap="round" stroke-linejoin="round" stroke-width="2.24" d="M3 26v-.5A1.504 1.504 0 0 1 4.5 24h23a1.504 1.504 0 0 1 1.5 1.5v.5M7 15v-1a2.002 2.002 0 0 1 2-2h5a2.002 2.002 0 0 1 2 2m0 0v1m0-1a2.008 2.008 0 0 1 2-2h5a2.002 2.002 0 0 1 2 2v1"/>
    </symbol>
    <symbol id="icon-eat" viewBox="0 0 32 32">
      <path stroke-linecap="round" stroke-linejoin="round" stroke-width="2.4" d="M25.333 20V4c-6.421 6.125-6.697 11.092-6.667 16h6.667zm0 0v8H24v-4M10.667 5.333V28m-4-22.667v4a4.003 4.003 0 0 0 4 4 4.003 4.003 0 0 0 4-4v-4"/>
    </symbol>
    <symbol id="icon-shower" viewBox="0 0 32 32">
      <path stroke-linecap="round" stroke-linejoin="round" stroke-width="2" d="m5.333 5.333 3.333 3.333M18 8.667a6.6 6.6 0 0 0-9.334 9.334M20 6.667 6.667 20m12 2.667v.013m-5.334-1.347v.013m4-4.013v.013m4-4.013v.013m-6.666 13.321v.013m8-8.013v.013m4-4.013v.013"/>
    </symbol>
    <symbol id="icon-route" viewBox="0 0 32 32">
      <path d="M6.667 4a2.667 2.667 0 1 0 0 5.334 2.667 2.667 0 0 0 0-5.334zM1.333 6.667a5.333 5.333 0 1 1 10.666 0 5.333 5.333 0 0 1-10.666 0zM25.333 22.667a2.667 2.667 0 1 0 0 5.334 2.667 2.667 0 0 0 0-5.334zM20 25.333a5.333 5.333 0 1 1 10.667 0 5.333 5.333 0 0 1-10.667 0z"/>
      <path d="M13.333 6.667c0-.736.597-1.333 1.333-1.333h8.4c4.13 0 5.62 5.404 1.987 7.429L9.58 21.567a1.295 1.295 0 0 0 .686 2.434h7.067a1.333 1.333 0 0 1 0 2.666h-7.067c-4.13 0-5.619-5.404-1.987-7.429l15.473-8.804A1.295 1.295 0 0 0 23.066 8h-8.4a1.333 1.333 0 0 1-1.333-1.333z"/>
    </symbol>
    <symbol id="icon-users" viewBox="0 0 32 32">
      <path d="M9.067 24.133h-4.4c-.267 0-.4-.133-.533-.267s-.267-.4-.133-.667c.8-2.267 2.8-3.6 5.067-3.6 2.8 0 5.067-2.4 5.067-5.2s-2.267-5.467-5.067-5.467c-2.8 0-5.067 2.4-5.067 5.333a5.69 5.69 0 0 0 1.333 3.6c-1.733.933-3.067 2.4-3.867 4.4-.267.933-.133 2.133.533 3.067s1.6 1.467 2.667 1.467h4.4c.8 0 1.333-.533 1.333-1.333s-.533-1.333-1.333-1.333zm-2.4-9.866c0-1.467 1.067-2.533 2.4-2.533s2.4 1.2 2.4 2.533c0 1.467-1.067 2.533-2.4 2.533s-2.4-1.2-2.4-2.533z"/>
      <path d="M30.533 21.467c-.933-2.533-2.8-4.4-4.933-5.467 1.2-1.067 1.867-2.667 1.867-4.533C27.467 8 24.8 5.2 21.6 5.2s-5.867 2.8-5.867 6.267A6.35 6.35 0 0 0 17.6 16c-2.133 1.067-4 2.933-4.933 5.467-.667 1.2-.4 2.533.267 3.6s1.867 1.6 3.067 1.6h11.067c1.2 0 2.4-.667 3.067-1.6.8-1.067.933-2.4.4-3.6zM18.267 11.6c0-2 1.467-3.6 3.2-3.6s3.2 1.6 3.2 3.6-1.467 3.6-3.2 3.6-3.2-1.733-3.2-3.6zm9.6 12c-.133.133-.4.533-.8.533H16c-.533 0-.8-.4-.8-.533-.133-.133-.4-.667-.133-1.2 1.067-2.8 3.733-4.667 6.533-4.667s5.467 1.867 6.533 4.667c.133.533-.133 1.067-.267 1.2z"/>
    </symbol>
    <symbol id="icon-fuel" viewBox="0 0 32 32">
      <path d="m26.36 9.64.013-.013-4.96-4.96L20 6.08l2.813 2.813a3.324 3.324 0 0 0-1.17 5.464 3.333 3.333 0 0 0 2.357.976c.48 0 .92-.107 1.333-.28v9.613a1.335 1.335 0 0 1-2.277.943 1.335 1.335 0 0 1-.391-.943v-6a2.668 2.668 0 0 0-2.667-2.667h-1.333V6.666a2.668 2.668 0 0 0-2.667-2.667h-8a2.668 2.668 0 0 0-2.667 2.667v21.333h13.333v-10h2v6.667a3.333 3.333 0 1 0 6.667-.001V11.998c0-.92-.373-1.76-.973-2.36zM16 18v7.333H8V16h8v2zm0-4.667H8V6.666h8v6.667zm8 0a1.333 1.333 0 1 1-.002-2.665A1.333 1.333 0 0 1 24 13.333z"/>
    </symbol>
    <symbol id="icon-tv" viewBox="0 0 32 32">
      <path stroke-linecap="round" stroke-linejoin="round" stroke-width="1.8" d="M24 26H8c-2.216 0-4-1.784-4-4V12c0-2.216 1.784-4 4-4h16c2.216 0 4 1.784 4 4v10c0 2.216-1.784 4-4 4zM12 30h8M16 8l6-6M16 8l-6-6"/>
    </symbol>
    <symbol id="icon-favorite" viewBox="0 0 32 32">
      <path stroke-linecap="round" stroke-linejoin="round" stroke-width="3.067" d="M27.787 6.147a7.326 7.326 0 0 0-10.373 0L16.001 7.56l-1.413-1.413a7.333 7.333 0 0 0-10.374 0 7.333 7.333 0 0 0 0 10.374l11.787 11.787 11.787-11.787a7.345 7.345 0 0 0 2.15-5.187 7.33 7.33 0 0 0-2.15-5.187z"/>
    </symbol>
    <symbol id="icon-location" viewBox="0 0 29 32">
      <path stroke-linejoin="round" stroke-linecap="round" stroke-miterlimit="4" stroke-width="2.4" d="M26.4 13.333c0 9.333-12 17.333-12 17.333s-12-8-12-17.333c0-3.183 1.264-6.235 3.515-8.485s5.303-3.515 8.485-3.515c3.183 0 6.235 1.264 8.485 3.515s3.515 5.303 3.515 8.485z"></path>
      <path stroke-linejoin="round" stroke-linecap="round" stroke-miterlimit="4" stroke-width="2.4" d="M14.4 17.333c2.209 0 4-1.791 4-4s-1.791-4-4-4c-2.209 0-4 1.791-4 4s1.791 4 4 4z"></path>
    </symbol>
    <symbol id="icon-star" viewBox="0 0 32 32">
      <path stroke-linejoin="miter" stroke-linecap="butt" stroke-miterlimit="4" stroke-width="2.4" d="M12.4 9.394l3.6-6.822 3.6 6.822c0.318 0.603 0.899 1.025 1.571 1.141l7.601 1.315-5.376 5.532c-0.475 0.489-0.697 1.171-0.6 1.846l1.098 7.635-6.922-3.404c-0.612-0.301-1.329-0.301-1.941 0l-6.922 3.404 1.098-7.635c0.097-0.675-0.125-1.357-0.6-1.846l-5.376-5.532 7.601-1.315c0.672-0.116 1.252-0.538 1.571-1.141zM29.035 11.579v0zM7.767 27.031c0 0 0 0 0 0h-0z"></path>
    </symbol>
    <symbol id="icon-close" viewBox="0 0 32 32">
      <path stroke-linejoin="round" stroke-linecap="round" stroke-miterlimit="4" stroke-width="3" d="M24 8l-16 16"></path>
      <path stroke-linejoin="round" stroke-linecap="round" stroke-miterlimit="4" stroke-width="3" d="M8 8l16 16"></path>
    </symbol>
    <symbol id="icon-hob" viewBox="0 0 32 32">
      <path fill="none" stroke="#101828" style="stroke: var(--color1, #101828)" stroke-linejoin="miter" stroke-linecap="butt" stroke-miterlimit="4" stroke-width="2.4" d="M12 6.667h16c0.354 0 0.693 0.14 0.943 0.391s0.391 0.589 0.391 0.943v17.333c0 0.354-0.14 0.693-0.391 0.943s-0.589 0.391-0.943 0.391h-16M12 6.667h-8c-0.354 0-0.693 0.14-0.943 0.391s-0.391 0.589-0.391 0.943v17.333c0 0.354 0.14 0.693 0.391 0.943s0.589 0.391 0.943 0.391h8M12 6.667v20"></path>
      <path fill="none" stroke="#101828" style="stroke: var(--color1, #101828)" stroke-linejoin="round" stroke-linecap="round" stroke-miterlimit="4" stroke-width="2.4" d="M7.333 11.333v2.667M24.666 10.667l-8 11.333"></path>
      <path d="M8.667 18c0-0.736-0.597-1.333-1.333-1.333s-1.333 0.597-1.333 1.333c0 0.736 0.597 1.333 1.333 1.333s1.333-0.597 1.333-1.333z"></path>
      <path d="M8.667 22c0-0.736-0.597-1.333-1.333-1.333s-1.333 0.597-1.333 1.333c0 0.736 0.597 1.333 1.333 1.333s1.333-0.597 1.333-1.333z"></path>
    </symbol>
    <symbol id="icon-radio" viewBox="0 0 32 32">
      <path stroke-linejoin="miter" stroke-linecap="butt" stroke-miterlimit="4" stroke-width="2.0800" d="M2.666 18.667c0-5.028 0-7.543 1.563-9.104 1.561-1.563 4.076-1.563 9.104-1.563h5.333c5.028 0 7.543 0 9.104 1.563 1.563 1.561 1.563 4.076 1.563 9.104s0 7.543-1.563 9.104c-1.561 1.563-4.076 1.563-9.104 1.563h-5.333c-5.028 0-7.543 0-9.104-1.563-1.563-1.561-1.563-4.076-1.563-9.104z"></path>
      <path stroke-linejoin="miter" stroke-linecap="butt" stroke-miterlimit="4" stroke-width="2.0800" d="M6.666 14.667c0-0.707 0.281-1.386 0.781-1.886s1.178-0.781 1.886-0.781h13.333c0.707 0 1.386 0.281 1.886 0.781s0.781 1.178 0.781 1.886-0.281 1.386-0.781 1.886c-0.5 0.5-1.178 0.781-1.886 0.781h-13.333c-0.707 0-1.386-0.281-1.886-0.781s-0.781-1.178-0.781-1.886zM12 22.667c0 0.53-0.211 1.039-0.586 1.414s-0.884 0.586-1.414 0.586-1.039-0.211-1.414-0.586c-0.375-0.375-0.586-0.884-0.586-1.414s0.211-1.039 0.586-1.414 0.884-0.586 1.414-0.586c0.53 0 1.039 0.211 1.414 0.586s0.586 0.884 0.586 1.414z"></path>
      <path stroke-linejoin="miter" stroke-linecap="round" stroke-miterlimit="4" stroke-width="2.0800" d="M20 15.333v2M17.333 22.667h6.667M8.666 8l11.333-5.333"></path>
    </symbol>
    <symbol id="icon-cd" viewBox="0 0 32 32">
      <path stroke-linejoin="miter" stroke-linecap="butt" stroke-miterlimit="4" stroke-width="2.4" d="M16 28c6.627 0 12-5.373 12-12s-5.373-12-12-12c-6.627 0-12 5.373-12 12s5.373 12 12 12z"></path>
      <path stroke-linejoin="miter" stroke-linecap="round" stroke-miterlimit="4" stroke-width="2.4" d="M8.666 16c0-4.050 3.283-7.333 7.333-7.333"></path>
      <path stroke-linejoin="miter" stroke-linecap="butt" stroke-miterlimit="4" stroke-width="2.4" d="M16 19.333c1.841 0 3.333-1.492 3.333-3.333s-1.492-3.333-3.333-3.333c-1.841 0-3.333 1.492-3.333 3.333s1.492 3.333 3.333 3.333z"></path>
    </symbol>
    <symbol id="icon-conder" viewBox="0 0 32 32">
      <path stroke-linejoin="round" stroke-linecap="round" stroke-miterlimit="4" stroke-width="2.4" d="M28.572 1.143h-25.143c-0.606 0-1.188 0.241-1.616 0.669s-0.669 1.010-0.669 1.616v11.429c0 0.606 0.241 1.188 0.669 1.616s1.010 0.669 1.616 0.669h25.143c0.606 0 1.188-0.241 1.616-0.669s0.669-1.010 0.669-1.616v-11.429c0-0.606-0.241-1.188-0.669-1.616s-1.010-0.669-1.616-0.669z"></path>
      <path stroke-linejoin="round" stroke-linecap="round" stroke-miterlimit="4" stroke-width="2.4" d="M25.143 17.143v-4.571c0-0.606-0.241-1.188-0.669-1.616s-1.010-0.669-1.616-0.669h-13.714c-0.606 0-1.188 0.241-1.616 0.669s-0.669 1.010-0.669 1.616v4.571M5.714 28.572h0.229c0.849 0 1.663-0.337 2.263-0.937s0.937-1.414 0.937-2.263v-2.514M26.285 28.572h-0.228c-0.849 0-1.663-0.337-2.263-0.937s-0.937-1.414-0.937-2.263v-2.514M16 30.857v-8"></path>
    </symbol>
  </defs>
</svg>